<svg xmlns="http://www.w3.org/2000/svg" xmlns:xlink="http://www.w3.org/1999/xlink" xmlns:lucid="lucid" width="1760" height="1360"><g transform="translate(0 0)" lucid:page-tab-id="Xcy7oxO_ZdV~"><path d="M32 37c0-2.76 2.24-5 5-5h838c2.76 0 5 2.24 5 5v38c0 2.76-2.24 5-5 5H37c-2.76 0-5-2.24-5-5z" fill="none"/><use xlink:href="#a" transform="matrix(1,0,0,1,32,32) translate(2.01 28.444444444444446)"/><use xlink:href="#b" transform="matrix(1,0,0,1,32,32) translate(96.6272839506173 28.444444444444446)"/><path d="M31.33 80H1728" stroke="#999" stroke-width="2" fill="none"/><path d="M481 180c0 11.05-8.95 20-20 20s-20-8.95-20-20 8.95-20 20-20 20 8.95 20 20z" stroke="#666" stroke-width="2"/><path d="M462 378.26h-2v-68.7h2zm0-90.3h-2V201h2zM461 200l1-.04V201h-2v-1.13zM461 393.26L456.36 379h9.28z" fill="#999"/><path d="M461 396.5l-6-18.5h12zm-3.26-16.5l3.26 10.03 3.26-10.03z" fill="#999"/><use xlink:href="#c" transform="matrix(1,0,0,1,418.8,287.95031187519686) translate(0 14.4)"/><path d="M562 477.5h318.75c.14 0 .25.1.25.25 0 .14.1.25.25.25h300.5" stroke="#999" stroke-width="2" fill="none"/><path d="M562 478.5h-1v-2h1zM1196.76 478l-14.26 4.64v-9.28z" fill="#999"/><path d="M1200 478l-18.5 6v-12zm-16.5 3.26l10.03-3.26-10.03-3.26z" fill="#999"/><use xlink:href="#d" transform="matrix(1,0,0,1,843.8167230684592,451.902268107125) translate(0 14.4)"/><path d="M545 397.5c8.84 0 16 7.16 16 16v128c0 8.84-7.16 16-16 16H377c-8.84 0-16-7.16-16-16v-128c0-8.84 7.16-16 16-16z" stroke="#666" stroke-width="2" fill="#fff"/><path d="M361 445.5h200" stroke="#666" stroke-width="2" fill="none"/><use xlink:href="#e" transform="matrix(1,0,0,1,381,397.5) translate(59.55 27.6)"/><use xlink:href="#f" transform="matrix(1,0,0,1,381,455.5) translate(17.474999999999994 49.6)"/><use xlink:href="#g" transform="matrix(1,0,0,1,381,455.5) translate(59.724999999999994 49.6)"/><use xlink:href="#h" transform="matrix(1,0,0,1,381,455.5) translate(88.625 49.6)"/><path d="M1385 398c8.84 0 16 7.16 16 16v128c0 8.84-7.16 16-16 16h-168c-8.84 0-16-7.16-16-16V414c0-8.84 7.16-16 16-16z" stroke="#666" stroke-width="2" fill="#fff"/><path d="M1201 446h200" stroke="#666" stroke-width="2" fill="none"/><use xlink:href="#i" transform="matrix(1,0,0,1,1221,398.00000000000006) translate(43.599999999999994 27.6)"/><use xlink:href="#j" transform="matrix(1,0,0,1,1221,456.00000000000006) translate(2.1999999999999886 38.8)"/><use xlink:href="#k" transform="matrix(1,0,0,1,1221,456.00000000000006) translate(51.099999999999994 38.8)"/><use xlink:href="#l" transform="matrix(1,0,0,1,1221,456.00000000000006) translate(99 38.8)"/><use xlink:href="#m" transform="matrix(1,0,0,1,1221,456.00000000000006) translate(140.9 38.8)"/><use xlink:href="#n" transform="matrix(1,0,0,1,1221,456.00000000000006) translate(46.55 60.4)"/><path d="M1385 720c8.84 0 16 7.16 16 16v128c0 8.84-7.16 16-16 16h-168c-8.84 0-16-7.16-16-16V736c0-8.84 7.16-16 16-16z" stroke="#666" stroke-width="2" fill="#fff"/><path d="M1201 768h200" stroke="#666" stroke-width="2" fill="none"/><use xlink:href="#o" transform="matrix(1,0,0,1,1221,720) translate(34.099999999999994 27.6)"/><use xlink:href="#f" transform="matrix(1,0,0,1,1221,778) translate(10.974999999999994 38.8)"/><use xlink:href="#g" transform="matrix(1,0,0,1,1221,778) translate(53.224999999999994 38.8)"/><use xlink:href="#p" transform="matrix(1,0,0,1,1221,778) translate(82.125 38.8)"/><use xlink:href="#q" transform="matrix(1,0,0,1,1221,778) translate(40.074999999999996 60.4)"/><path d="M965 720c8.84 0 16 7.16 16 16v128c0 8.84-7.16 16-16 16H797c-8.84 0-16-7.16-16-16V736c0-8.84 7.16-16 16-16z" stroke="#666" stroke-width="2" fill="#fff"/><path d="M781 768h200" stroke="#666" stroke-width="2" fill="none"/><use xlink:href="#r" transform="matrix(1,0,0,1,801,720) translate(25.75 27.6)"/><use xlink:href="#s" transform="matrix(1,0,0,1,801,778) translate(58.05 28)"/><use xlink:href="#t" transform="matrix(1,0,0,1,801,778) translate(23.15 49.6)"/><use xlink:href="#q" transform="matrix(1,0,0,1,801,778) translate(40.074999999999996 71.2)"/><path d="M1385 1042c8.84 0 16 7.16 16 16v128c0 8.84-7.16 16-16 16h-168c-8.84 0-16-7.16-16-16v-128c0-8.84 7.16-16 16-16z" stroke="#666" stroke-width="2" fill="#fff"/><path d="M1201 1090h200" stroke="#666" stroke-width="2" fill="none"/><use xlink:href="#u" transform="matrix(1,0,0,1,1221,1042) translate(50.05 27.6)"/><use xlink:href="#v" transform="matrix(1,0,0,1,1221,1100) translate(0.32499999999998863 49.6)"/><use xlink:href="#w" transform="matrix(1,0,0,1,1221,1100) translate(62.775 49.6)"/><use xlink:href="#x" transform="matrix(1,0,0,1,1221,1100) translate(114.675 49.6)"/><path d="M1402 478h124c2.76 0 5-2.24 5-5V362c0-2.76-2.24-5-5-5h-220c-2.76 0-5 2.24-5 5v16.76" stroke="#999" stroke-width="2" fill="none"/><path d="M1402 479h-1v-2h1zM1301 393.76l-4.64-14.26h9.28z" fill="#999"/><path d="M1301 397l-6-18.5h12zm-3.26-16.5l3.26 10.03 3.26-10.03z" fill="#999"/><use xlink:href="#y" transform="matrix(1,0,0,1,1338.281117837847,331.4) translate(0.0049999999999954525 14.4)"/><use xlink:href="#z" transform="matrix(1,0,0,1,1338.281117837847,331.4) translate(68.905 14.4)"/><use xlink:href="#A" transform="matrix(1,0,0,1,1338.281117837847,331.4) translate(84.405 14.4)"/><path d="M1302 700.76h-2V649.8h2zm0-72.56h-2V559h2zM1302 559h-2v-1h2zM1301 715.76l-4.64-14.26h9.28z" fill="#999"/><path d="M1301 719l-6-18.5h12zm-3.26-16.5l3.26 10.03 3.26-10.03z" fill="#999"/><use xlink:href="#y" transform="matrix(1,0,0,1,1221.125,628.2) translate(0.0049999999999954525 14.4)"/><use xlink:href="#B" transform="matrix(1,0,0,1,1221.125,628.2) translate(68.905 14.4)"/><use xlink:href="#A" transform="matrix(1,0,0,1,1221.125,628.2) translate(94.905 14.4)"/><path d="M1302 1022.76h-2V971.8h2zm0-72.56h-2V881h2zM1302 881h-2v-1h2zM1301 1037.76l-4.64-14.26h9.28z" fill="#999"/><path d="M1301 1041l-6-18.5h12zm-3.26-16.5l3.26 10.03 3.26-10.03z" fill="#999"/><use xlink:href="#C" transform="matrix(1,0,0,1,1216.95,950.2) translate(0.0049999999999954525 14.4)"/><use xlink:href="#D" transform="matrix(1,0,0,1,1216.95,950.2) translate(66.855 14.4)"/><use xlink:href="#E" transform="matrix(1,0,0,1,1216.95,950.2) translate(82.355 14.4)"/><path d="M1059.28 801h-59.04v-2h59.04zm140.72 0h-77.28v-2H1200zM1201 801h-1v-2h1zM999.5 804.64L985.24 800l14.26-4.64z" fill="#999"/><path d="M1000.5 806l-18.5-6 18.5-6zm-12.03-6l10.03 3.26v-6.52z" fill="#999"/><use xlink:href="#F" transform="matrix(1,0,0,1,1059.275,789.2) translate(0.004999999999999005 14.4)"/><path d="M700.67 680h-14.6l-1.25.2-2 1.46-.82 2.5v110.76l.2 1.26 1.46 2 2.5.82H780v2h-94.16l-3.4-1.1-2.13-2.92-.3-1.9V683.84l1.1-3.4 2.92-2.13 1.9-.3h14.75zm178.9-.9l2.12 2.92.3 1.9v16.84h-2v-16.68l-.2-1.26-1.46-2-2.5-.82h-25.92v-2h26.24zM781 801h-1v-2h1zM881 715.76l-4.64-14.26h9.28z" fill="#999"/><path d="M881 719l-6-18.5h12zm-3.26-16.5l3.26 10.03 3.26-10.03z" fill="#999"/><use xlink:href="#y" transform="matrix(1,0,0,1,700.6735066833752,668.2) translate(0.0049999999999954525 14.4)"/><use xlink:href="#z" transform="matrix(1,0,0,1,700.6735066833752,668.2) translate(68.905 14.4)"/><use xlink:href="#A" transform="matrix(1,0,0,1,700.6735066833752,668.2) translate(84.405 14.4)"/><path d="M462 827.45l.2 1.27 1.46 2 2.5.8H780v2H465.84l-3.4-1.1-2.13-2.9-.3-1.9V714.2h2zm0-134.84h-2V576.75h2zM781 833.53h-1v-2h1zM465.64 576h-9.28l4.64-14.26z" fill="#999"/><path d="M467 577h-12l6-18.5zm-9.26-2h6.52L461 564.97z" fill="#999"/><g><use xlink:href="#y" transform="matrix(1,0,0,1,381.125,692.6071116503094) translate(0.0049999999999954525 14.4)"/><use xlink:href="#B" transform="matrix(1,0,0,1,381.125,692.6071116503094) translate(68.905 14.4)"/><use xlink:href="#A" transform="matrix(1,0,0,1,381.125,692.6071116503094) translate(94.905 14.4)"/></g><path d="M1472 1238.08l-.3 1.9-2.13 2.9-3.4 1.12H1305.9l-1.9-.3-2.9-2.13-1.12-3.4V1203h2v34.84l.82 2.5 2 1.46 1.26.2h159.76l2.5-.82 1.46-2 .2-1.26v-46.17h2zm-4.02-116.77l2.9 2.13 1.12 3.4v43.32h-2v-43l-.82-2.5-2-1.45-1.26-.2h-45.68v-2h45.84z" fill="#999"/><path d="M1302 1203h-2v-1h2zM1419.5 1126.64l-14.26-4.64 14.26-4.64z" fill="#999"/><path d="M1420.5 1128l-18.5-6 18.5-6zm-12.03-6l10.03 3.26v-6.52z" fill="#999"/><g><use xlink:href="#G" transform="matrix(1,0,0,1,1423.025,1170.147472848789) translate(0.005000000000002558 14.4)"/><use xlink:href="#H" transform="matrix(1,0,0,1,1423.025,1170.147472848789) translate(59.955000000000005 14.4)"/><use xlink:href="#I" transform="matrix(1,0,0,1,1423.025,1170.147472848789) translate(85.95500000000001 14.4)"/></g><path d="M341.76 478.5h-16.68l-1.26.2-2 1.46-.82 2.5v634.26l.2 1.26 1.46 2 2.5.82h369.62v2H324.84l-3.4-1.1-2.13-2.92-.3-1.9V482.34l1.1-3.4 2.92-2.13 1.9-.3h16.84zM1200 1121v2H856.63v-2zM1201 1123h-1v-2h1z" fill="#999"/><path d="M356.76 477.5l-14.26 4.64v-9.28z" fill="#999"/><path d="M360 477.5l-18.5 6v-12zm-16.5 3.26l10.03-3.26-10.03-3.26z" fill="#999"/><g><use xlink:href="#G" transform="matrix(1,0,0,1,694.7848214285716,1111.2) translate(0.0049999999999954525 14.4)"/><use xlink:href="#B" transform="matrix(1,0,0,1,694.7848214285716,1111.2) translate(59.955 14.4)"/><use xlink:href="#J" transform="matrix(1,0,0,1,694.7848214285716,1111.2) translate(85.955 14.4)"/></g><path d="M1512 1083.28l-.3 1.9-2.13 2.9-3.4 1.12H1402v-2h103.84l2.5-.8 1.46-2 .2-1.28V813.3h2zm-4.02-567.18l2.9 2.13 1.12 3.4V791.7h-2V521.96l-.82-2.5-2-1.46-1.26-.2h-85.68v-2h85.84zM1402 1089.2h-1v-2h1zM1419.5 521.43l-14.26-4.63 14.26-4.64z" fill="#999"/><path d="M1420.5 522.8l-18.5-6 18.5-6zm-12.03-6l10.03 3.26v-6.52z" fill="#999"/><g><use xlink:href="#G" transform="matrix(1,0,0,1,1435.325,791.7) translate(0.0049999999999954525 14.4)"/><use xlink:href="#z" transform="matrix(1,0,0,1,1435.325,791.7) translate(59.955 14.4)"/><use xlink:href="#K" transform="matrix(1,0,0,1,1435.325,791.7) translate(75.455 14.4)"/></g><defs><path fill="#999" d="M169-182c-1-43-94-46-97-3 18 66 151 10 154 114 3 95-165 93-204 36-6-8-10-19-12-30l50-8c3 46 112 56 116 5-17-69-150-10-154-114-4-87 153-88 188-35 5 8 8 18 10 28" id="L"/><path fill="#999" d="M199 0l-22-63H83L61 0H9l90-248h61L250 0h-51zm-33-102l-36-108c-10 38-24 72-36 108h72" id="M"/><path fill="#999" d="M67-125c0 53 21 87 73 88 37 1 54-22 65-47l45 17C233-25 199 4 140 4 58 4 20-42 15-125 8-235 124-281 211-232c18 10 29 29 36 50l-46 12c-8-25-30-41-62-41-52 0-71 34-72 86" id="N"/><path fill="#999" d="M24 0v-248h52V0H24" id="O"/><g id="a"><use transform="matrix(0.09876543209876544,0,0,0.09876543209876544,0,0)" xlink:href="#L"/><use transform="matrix(0.09876543209876544,0,0,0.09876543209876544,23.703703703703706,0)" xlink:href="#M"/><use transform="matrix(0.09876543209876544,0,0,0.09876543209876544,49.283950617283956,0)" xlink:href="#N"/><use transform="matrix(0.09876543209876544,0,0,0.09876543209876544,74.8641975308642,0)" xlink:href="#O"/></g><path fill="#999" d="M230 0l2-204L168 0h-37L68-204 70 0H24v-248h70l56 185 57-185h69V0h-46" id="P"/><path fill="#999" d="M136-208V0H84v-208H4v-40h212v40h-80" id="Q"/><path fill="#999" d="M24 0v-248h195v40H76v63h132v40H76v65h150V0H24" id="R"/><path fill="#999" d="M240-174c0 40-23 61-54 70L253 0h-59l-57-94H76V0H24v-248c93 4 217-23 216 74zM76-134c48-2 112 12 112-38 0-48-66-32-112-35v73" id="S"/><g id="b"><use transform="matrix(0.09876543209876544,0,0,0.09876543209876544,0,0)" xlink:href="#P"/><use transform="matrix(0.09876543209876544,0,0,0.09876543209876544,29.530864197530867,0)" xlink:href="#M"/><use transform="matrix(0.09876543209876544,0,0,0.09876543209876544,55.111111111111114,0)" xlink:href="#L"/><use transform="matrix(0.09876543209876544,0,0,0.09876543209876544,78.81481481481482,0)" xlink:href="#Q"/><use transform="matrix(0.09876543209876544,0,0,0.09876543209876544,100.44444444444446,0)" xlink:href="#R"/><use transform="matrix(0.09876543209876544,0,0,0.09876543209876544,124.14814814814815,0)" xlink:href="#S"/></g><path fill="#333" d="M135-150c-39-12-60 13-60 57V0H25l-1-190h47c2 13-1 29 3 40 6-28 27-53 61-41v41" id="T"/><path fill="#333" d="M185-48c-13 30-37 53-82 52C43 2 14-33 14-96s30-98 90-98c62 0 83 45 84 108H66c0 31 8 55 39 56 18 0 30-7 34-22zm-45-69c5-46-57-63-70-21-2 6-4 13-4 21h74" id="U"/><path fill="#333" d="M137-138c1-29-70-34-71-4 15 46 118 7 119 86 1 83-164 76-172 9l43-7c4 19 20 25 44 25 33 8 57-30 24-41C81-84 22-81 20-136c-2-80 154-74 161-7" id="V"/><path fill="#333" d="M115-3C79 11 28 4 28-45v-112H4v-33h27l15-45h31v45h36v33H77v99c-1 23 16 31 38 25v30" id="W"/><path fill="#333" d="M-4 44V30h207v14H-4" id="X"/><path fill="#333" d="M135-194c87-1 58 113 63 194h-50c-7-57 23-157-34-157-59 0-34 97-39 157H25l-1-190h47c2 12-1 28 3 38 12-26 28-41 61-42" id="Y"/><path fill="#333" d="M15-148v-39h180v39H15zm0 97v-39h180v39H15" id="Z"/><path fill="#333" d="M101-251c68 0 84 54 84 127C185-50 166 4 99 4S15-52 14-124c-1-75 17-127 87-127zm-1 216c37-5 36-46 36-89s4-89-36-89c-39 0-36 45-36 89 0 43-3 85 36 89" id="aa"/><g id="c"><use transform="matrix(0.05,0,0,0.05,0,0)" xlink:href="#T"/><use transform="matrix(0.05,0,0,0.05,7,0)" xlink:href="#U"/><use transform="matrix(0.05,0,0,0.05,17,0)" xlink:href="#V"/><use transform="matrix(0.05,0,0,0.05,27,0)" xlink:href="#U"/><use transform="matrix(0.05,0,0,0.05,37,0)" xlink:href="#W"/><use transform="matrix(0.05,0,0,0.05,42.95,0)" xlink:href="#X"/><use transform="matrix(0.05,0,0,0.05,52.95,0)" xlink:href="#Y"/><use transform="matrix(0.05,0,0,0.05,63.900000000000006,0)" xlink:href="#Z"/><use transform="matrix(0.05,0,0,0.05,74.4,0)" xlink:href="#aa"/></g><path fill="#333" d="M133-34C117-15 103 5 69 4 32 3 11-16 11-54c-1-60 55-63 116-61 1-26-3-47-28-47-18 1-26 9-28 27l-52-2c7-38 36-58 82-57s74 22 75 68l1 82c-1 14 12 18 25 15v27c-30 8-71 5-69-32zm-48 3c29 0 43-24 42-57-32 0-66-3-65 30 0 17 8 27 23 27" id="ab"/><path fill="#333" d="M25-224v-37h50v37H25zM25 0v-190h50V0H25" id="ac"/><path fill="#333" d="M23 0v-37h61v-169l-59 37v-38l62-41h46v211h57V0H23" id="ad"/><g id="d"><use transform="matrix(0.05,0,0,0.05,0,0)" xlink:href="#V"/><use transform="matrix(0.05,0,0,0.05,10,0)" xlink:href="#W"/><use transform="matrix(0.05,0,0,0.05,15.949999999999998,0)" xlink:href="#ab"/><use transform="matrix(0.05,0,0,0.05,25.950000000000003,0)" xlink:href="#T"/><use transform="matrix(0.05,0,0,0.05,32.95,0)" xlink:href="#W"/><use transform="matrix(0.05,0,0,0.05,38.900000000000006,0)" xlink:href="#X"/><use transform="matrix(0.05,0,0,0.05,48.900000000000006,0)" xlink:href="#ac"/><use transform="matrix(0.05,0,0,0.05,53.900000000000006,0)" xlink:href="#Z"/><use transform="matrix(0.05,0,0,0.05,64.4,0)" xlink:href="#ad"/></g><path fill="#333" d="M24 0v-248h52V0H24" id="ae"/><path fill="#333" d="M24-248c120-7 223 5 221 122C244-46 201 0 124 0H24v-248zM76-40c74 7 117-18 117-86 0-67-45-88-117-82v168" id="af"/><path fill="#333" d="M24 0v-248h52v208h133V0H24" id="ag"/><path fill="#333" d="M24 0v-248h195v40H76v63h132v40H76v65h150V0H24" id="ah"/><g id="e"><use transform="matrix(0.05,0,0,0.05,0,0)" xlink:href="#ae"/><use transform="matrix(0.05,0,0,0.05,5,0)" xlink:href="#af"/><use transform="matrix(0.05,0,0,0.05,17.950000000000003,0)" xlink:href="#ag"/><use transform="matrix(0.05,0,0,0.05,28.900000000000006,0)" xlink:href="#ah"/></g><path fill="#333" d="M275 0h-61l-44-196L126 0H64L0-248h53L97-49l45-199h58l43 199 44-199h52" id="ai"/><g id="f"><use transform="matrix(0.05,0,0,0.05,0,0)" xlink:href="#ai"/><use transform="matrix(0.05,0,0,0.05,16.3,0)" xlink:href="#ab"/><use transform="matrix(0.05,0,0,0.05,26.3,0)" xlink:href="#ac"/><use transform="matrix(0.05,0,0,0.05,31.3,0)" xlink:href="#W"/></g><path fill="#333" d="M121-226c-27-7-43 5-38 36h38v33H83V0H34v-157H6v-33h28c-9-59 32-81 87-68v32" id="aj"/><path fill="#333" d="M110-194c64 0 96 36 96 99 0 64-35 99-97 99-61 0-95-36-95-99 0-62 34-99 96-99zm-1 164c35 0 45-28 45-65 0-40-10-65-43-65-34 0-45 26-45 65 0 36 10 65 43 65" id="ak"/><g id="g"><use transform="matrix(0.05,0,0,0.05,0,0)" xlink:href="#aj"/><use transform="matrix(0.05,0,0,0.05,5.95,0)" xlink:href="#ak"/><use transform="matrix(0.05,0,0,0.05,16.900000000000002,0)" xlink:href="#T"/></g><g id="h"><use transform="matrix(0.05,0,0,0.05,0,0)" xlink:href="#V"/><use transform="matrix(0.05,0,0,0.05,10,0)" xlink:href="#W"/><use transform="matrix(0.05,0,0,0.05,15.949999999999998,0)" xlink:href="#ab"/><use transform="matrix(0.05,0,0,0.05,25.950000000000003,0)" xlink:href="#T"/><use transform="matrix(0.05,0,0,0.05,32.95,0)" xlink:href="#W"/><use transform="matrix(0.05,0,0,0.05,38.900000000000006,0)" xlink:href="#X"/><use transform="matrix(0.05,0,0,0.05,48.900000000000006,0)" xlink:href="#ac"/></g><path fill="#333" d="M67-125c0 53 21 87 73 88 37 1 54-22 65-47l45 17C233-25 199 4 140 4 58 4 20-42 15-125 8-235 124-281 211-232c18 10 29 29 36 50l-46 12c-8-25-30-41-62-41-52 0-71 34-72 86" id="al"/><path fill="#333" d="M140-251c80 0 125 45 125 126S219 4 139 4C58 4 15-44 15-125s44-126 125-126zm-1 214c52 0 73-35 73-88 0-50-21-86-72-86-52 0-73 35-73 86s22 88 72 88" id="am"/><path fill="#333" d="M230 0l2-204L168 0h-37L68-204 70 0H24v-248h70l56 185 57-185h69V0h-46" id="an"/><path fill="#333" d="M136-208V0H84v-208H4v-40h212v40h-80" id="ao"/><g id="i"><use transform="matrix(0.05,0,0,0.05,0,0)" xlink:href="#al"/><use transform="matrix(0.05,0,0,0.05,12.950000000000001,0)" xlink:href="#am"/><use transform="matrix(0.05,0,0,0.05,26.950000000000003,0)" xlink:href="#an"/><use transform="matrix(0.05,0,0,0.05,41.900000000000006,0)" xlink:href="#an"/><use transform="matrix(0.05,0,0,0.05,56.85,0)" xlink:href="#ae"/><use transform="matrix(0.05,0,0,0.05,61.85,0)" xlink:href="#ao"/></g><path fill="#333" d="M169-182c-1-43-94-46-97-3 18 66 151 10 154 114 3 95-165 93-204 36-6-8-10-19-12-30l50-8c3 46 112 56 116 5-17-69-150-10-154-114-4-87 153-88 188-35 5 8 8 18 10 28" id="ap"/><path fill="#333" d="M88-194c31-1 46 15 58 34l-1-101h50l1 261h-48c-2-10 0-23-3-31C134-8 116 4 84 4 32 4 16-41 15-95c0-56 19-97 73-99zm17 164c33 0 40-30 41-66 1-37-9-64-41-64s-38 30-39 65c0 43 13 65 39 65" id="aq"/><g id="j"><use transform="matrix(0.05,0,0,0.05,0,0)" xlink:href="#ap"/><use transform="matrix(0.05,0,0,0.05,12,0)" xlink:href="#U"/><use transform="matrix(0.05,0,0,0.05,22,0)" xlink:href="#Y"/><use transform="matrix(0.05,0,0,0.05,32.95,0)" xlink:href="#aq"/></g><path fill="#333" d="M199 0l-22-63H83L61 0H9l90-248h61L250 0h-51zm-33-102l-36-108c-10 38-24 72-36 108h72" id="ar"/><g id="k"><use transform="matrix(0.05,0,0,0.05,0,0)" xlink:href="#ap"/><use transform="matrix(0.05,0,0,0.05,12,0)" xlink:href="#ar"/><use transform="matrix(0.05,0,0,0.05,24.950000000000003,0)" xlink:href="#al"/><use transform="matrix(0.05,0,0,0.05,37.900000000000006,0)" xlink:href="#ae"/></g><g id="l"><use transform="matrix(0.05,0,0,0.05,0,0)" xlink:href="#aq"/><use transform="matrix(0.05,0,0,0.05,10.950000000000001,0)" xlink:href="#ab"/><use transform="matrix(0.05,0,0,0.05,20.950000000000003,0)" xlink:href="#W"/><use transform="matrix(0.05,0,0,0.05,26.900000000000002,0)" xlink:href="#ab"/></g><g id="m"><use transform="matrix(0.05,0,0,0.05,0,0)" xlink:href="#W"/><use transform="matrix(0.05,0,0,0.05,5.95,0)" xlink:href="#ak"/></g><path fill="#333" d="M25 0v-261h50V0H25" id="as"/><path fill="#333" d="M128 0H69L1-190h53L99-40l48-150h52" id="at"/><path fill="#333" d="M67-93c0 74 22 123 53 168H70C40 30 18-18 18-93s22-123 52-168h50c-32 44-53 94-53 168" id="au"/><path fill="#333" d="M102-93c0 74-22 123-52 168H0C30 29 54-18 53-93c0-74-22-123-53-168h50c30 45 52 94 52 168" id="av"/><g id="n"><use transform="matrix(0.05,0,0,0.05,0,0)" xlink:href="#V"/><use transform="matrix(0.05,0,0,0.05,10,0)" xlink:href="#as"/><use transform="matrix(0.05,0,0,0.05,15,0)" xlink:href="#ab"/><use transform="matrix(0.05,0,0,0.05,25,0)" xlink:href="#at"/><use transform="matrix(0.05,0,0,0.05,35,0)" xlink:href="#U"/><use transform="matrix(0.05,0,0,0.05,45,0)" xlink:href="#au"/><use transform="matrix(0.05,0,0,0.05,50.95,0)" xlink:href="#V"/><use transform="matrix(0.05,0,0,0.05,60.95,0)" xlink:href="#av"/></g><path fill="#333" d="M240-174c0 40-23 61-54 70L253 0h-59l-57-94H76V0H24v-248c93 4 217-23 216 74zM76-134c48-2 112 12 112-38 0-48-66-32-112-35v73" id="aw"/><path fill="#333" d="M24-248c93 1 206-16 204 79-1 75-69 88-152 82V0H24v-248zm52 121c47 0 100 7 100-41 0-47-54-39-100-39v80" id="ax"/><g id="o"><use transform="matrix(0.05,0,0,0.05,0,0)" xlink:href="#aw"/><use transform="matrix(0.05,0,0,0.05,12.950000000000001,0)" xlink:href="#ap"/><use transform="matrix(0.05,0,0,0.05,24.950000000000003,0)" xlink:href="#ax"/><use transform="matrix(0.05,0,0,0.05,36.95,0)" xlink:href="#X"/><use transform="matrix(0.05,0,0,0.05,46.95,0)" xlink:href="#ai"/><use transform="matrix(0.05,0,0,0.05,62.900000000000006,0)" xlink:href="#ar"/><use transform="matrix(0.05,0,0,0.05,75.85000000000001,0)" xlink:href="#ae"/><use transform="matrix(0.05,0,0,0.05,80.85000000000001,0)" xlink:href="#ao"/></g><g id="p"><use transform="matrix(0.05,0,0,0.05,0,0)" xlink:href="#V"/><use transform="matrix(0.05,0,0,0.05,10,0)" xlink:href="#as"/><use transform="matrix(0.05,0,0,0.05,15,0)" xlink:href="#ab"/><use transform="matrix(0.05,0,0,0.05,25,0)" xlink:href="#at"/><use transform="matrix(0.05,0,0,0.05,35,0)" xlink:href="#U"/><use transform="matrix(0.05,0,0,0.05,45,0)" xlink:href="#au"/><use transform="matrix(0.05,0,0,0.05,50.95,0)" xlink:href="#V"/><use transform="matrix(0.05,0,0,0.05,60.95,0)" xlink:href="#av"/></g><path fill="#333" d="M135-194c53 0 70 44 70 98 0 56-19 98-73 100-31 1-45-17-59-34 3 33 2 69 2 105H25l-1-265h48c2 10 0 23 3 31 11-24 29-35 60-35zM114-30c33 0 39-31 40-66 0-38-9-64-40-64-56 0-55 130 0 130" id="ay"/><g id="q"><use transform="matrix(0.05,0,0,0.05,0,0)" xlink:href="#T"/><use transform="matrix(0.05,0,0,0.05,7,0)" xlink:href="#U"/><use transform="matrix(0.05,0,0,0.05,17,0)" xlink:href="#V"/><use transform="matrix(0.05,0,0,0.05,27,0)" xlink:href="#ay"/><use transform="matrix(0.05,0,0,0.05,37.95,0)" xlink:href="#ak"/><use transform="matrix(0.05,0,0,0.05,48.900000000000006,0)" xlink:href="#Y"/><use transform="matrix(0.05,0,0,0.05,59.85,0)" xlink:href="#V"/><use transform="matrix(0.05,0,0,0.05,69.85000000000001,0)" xlink:href="#U"/></g><g id="r"><use transform="matrix(0.05,0,0,0.05,0,0)" xlink:href="#aw"/><use transform="matrix(0.05,0,0,0.05,12.950000000000001,0)" xlink:href="#ap"/><use transform="matrix(0.05,0,0,0.05,24.950000000000003,0)" xlink:href="#ax"/><use transform="matrix(0.05,0,0,0.05,36.95,0)" xlink:href="#X"/><use transform="matrix(0.05,0,0,0.05,46.95,0)" xlink:href="#ap"/><use transform="matrix(0.05,0,0,0.05,58.95,0)" xlink:href="#ao"/><use transform="matrix(0.05,0,0,0.05,69.55,0)" xlink:href="#am"/><use transform="matrix(0.05,0,0,0.05,83.55,0)" xlink:href="#aw"/><use transform="matrix(0.05,0,0,0.05,96.5,0)" xlink:href="#ah"/></g><g id="s"><use transform="matrix(0.05,0,0,0.05,0,0)" xlink:href="#V"/><use transform="matrix(0.05,0,0,0.05,10,0)" xlink:href="#W"/><use transform="matrix(0.05,0,0,0.05,15.949999999999998,0)" xlink:href="#ak"/><use transform="matrix(0.05,0,0,0.05,26.899999999999995,0)" xlink:href="#T"/><use transform="matrix(0.05,0,0,0.05,33.9,0)" xlink:href="#U"/></g><path fill="#333" d="M4 7l51-268h42L46 7H4" id="az"/><g id="t"><use transform="matrix(0.05,0,0,0.05,0,0)" xlink:href="#ai"/><use transform="matrix(0.05,0,0,0.05,16.95,0)" xlink:href="#aw"/><use transform="matrix(0.05,0,0,0.05,29.899999999999995,0)" xlink:href="#ae"/><use transform="matrix(0.05,0,0,0.05,34.9,0)" xlink:href="#ao"/><use transform="matrix(0.05,0,0,0.05,45.85,0)" xlink:href="#ah"/><use transform="matrix(0.05,0,0,0.05,57.85,0)" xlink:href="#az"/><use transform="matrix(0.05,0,0,0.05,62.85,0)" xlink:href="#aw"/><use transform="matrix(0.05,0,0,0.05,75.8,0)" xlink:href="#ah"/><use transform="matrix(0.05,0,0,0.05,87.8,0)" xlink:href="#ar"/><use transform="matrix(0.05,0,0,0.05,100.75,0)" xlink:href="#af"/></g><g id="u"><use transform="matrix(0.05,0,0,0.05,0,0)" xlink:href="#aw"/><use transform="matrix(0.05,0,0,0.05,12.950000000000001,0)" xlink:href="#ah"/><use transform="matrix(0.05,0,0,0.05,24.950000000000003,0)" xlink:href="#ap"/><use transform="matrix(0.05,0,0,0.05,36.95,0)" xlink:href="#ah"/><use transform="matrix(0.05,0,0,0.05,48.95,0)" xlink:href="#ao"/></g><path fill="#333" d="M195-6C206 82 75 100 31 46c-4-6-6-13-8-21l49-6c3 16 16 24 34 25 40 0 42-37 40-79-11 22-30 35-61 35-53 0-70-43-70-97 0-56 18-96 73-97 30 0 46 14 59 34l2-30h47zm-90-29c32 0 41-27 41-63 0-35-9-62-40-62-32 0-39 29-40 63 0 36 9 62 39 62" id="aA"/><g id="v"><use transform="matrix(0.05,0,0,0.05,0,0)" xlink:href="#ao"/><use transform="matrix(0.05,0,0,0.05,9.600000000000001,0)" xlink:href="#ak"/><use transform="matrix(0.05,0,0,0.05,20.550000000000004,0)" xlink:href="#aA"/><use transform="matrix(0.05,0,0,0.05,31.500000000000007,0)" xlink:href="#aA"/><use transform="matrix(0.05,0,0,0.05,42.45000000000001,0)" xlink:href="#as"/><use transform="matrix(0.05,0,0,0.05,47.45000000000001,0)" xlink:href="#U"/></g><path fill="#333" d="M85 4C-2 5 27-109 22-190h50c7 57-23 150 33 157 60-5 35-97 40-157h50l1 190h-47c-2-12 1-28-3-38-12 25-28 42-61 42" id="aB"/><path fill="#333" d="M190-63c-7 42-38 67-86 67-59 0-84-38-90-98-12-110 154-137 174-36l-49 2c-2-19-15-32-35-32-30 0-35 28-38 64-6 74 65 87 74 30" id="aC"/><path fill="#333" d="M147 0L96-86 75-71V0H25v-261h50v150l67-79h53l-66 74L201 0h-54" id="aD"/><g id="w"><use transform="matrix(0.05,0,0,0.05,0,0)" xlink:href="#V"/><use transform="matrix(0.05,0,0,0.05,10,0)" xlink:href="#W"/><use transform="matrix(0.05,0,0,0.05,15.949999999999998,0)" xlink:href="#aB"/><use transform="matrix(0.05,0,0,0.05,26.899999999999995,0)" xlink:href="#aC"/><use transform="matrix(0.05,0,0,0.05,36.9,0)" xlink:href="#aD"/></g><g id="x"><use transform="matrix(0.05,0,0,0.05,0,0)" xlink:href="#V"/><use transform="matrix(0.05,0,0,0.05,10,0)" xlink:href="#as"/><use transform="matrix(0.05,0,0,0.05,15,0)" xlink:href="#ab"/><use transform="matrix(0.05,0,0,0.05,25,0)" xlink:href="#at"/><use transform="matrix(0.05,0,0,0.05,35,0)" xlink:href="#U"/></g><g id="y"><use transform="matrix(0.05,0,0,0.05,0,0)" xlink:href="#V"/><use transform="matrix(0.05,0,0,0.05,10,0)" xlink:href="#U"/><use transform="matrix(0.05,0,0,0.05,20,0)" xlink:href="#T"/><use transform="matrix(0.05,0,0,0.05,27,0)" xlink:href="#X"/><use transform="matrix(0.05,0,0,0.05,37,0)" xlink:href="#aC"/><use transform="matrix(0.05,0,0,0.05,47,0)" xlink:href="#Y"/><use transform="matrix(0.05,0,0,0.05,57.95,0)" xlink:href="#W"/></g><path fill="#333" d="M15-91v-56l181-69v40L49-119l147 57v40" id="aE"/><use transform="matrix(0.05,0,0,0.05,0,0)" xlink:href="#aE" id="z"/><g id="A"><use transform="matrix(0.05,0,0,0.05,0,0)" xlink:href="#T"/><use transform="matrix(0.05,0,0,0.05,7,0)" xlink:href="#V"/><use transform="matrix(0.05,0,0,0.05,17,0)" xlink:href="#ay"/><use transform="matrix(0.05,0,0,0.05,27.950000000000003,0)" xlink:href="#X"/><use transform="matrix(0.05,0,0,0.05,37.95,0)" xlink:href="#aC"/><use transform="matrix(0.05,0,0,0.05,47.95,0)" xlink:href="#Y"/><use transform="matrix(0.05,0,0,0.05,58.900000000000006,0)" xlink:href="#W"/></g><path fill="#333" d="M15-22v-40l146-57-146-57v-40l181 69v56" id="aF"/><g id="B"><use transform="matrix(0.05,0,0,0.05,0,0)" xlink:href="#aF"/><use transform="matrix(0.05,0,0,0.05,10.5,0)" xlink:href="#Z"/></g><path fill="#333" d="M231 0h-52l-39-155L100 0H48L-1-190h46L77-45c9-52 24-97 36-145h53l37 145 32-145h46" id="aG"/><g id="C"><use transform="matrix(0.05,0,0,0.05,0,0)" xlink:href="#aG"/><use transform="matrix(0.05,0,0,0.05,14,0)" xlink:href="#aA"/><use transform="matrix(0.05,0,0,0.05,24.950000000000003,0)" xlink:href="#X"/><use transform="matrix(0.05,0,0,0.05,34.95,0)" xlink:href="#aC"/><use transform="matrix(0.05,0,0,0.05,44.95,0)" xlink:href="#Y"/><use transform="matrix(0.05,0,0,0.05,55.900000000000006,0)" xlink:href="#W"/></g><use transform="matrix(0.05,0,0,0.05,0,0)" xlink:href="#aF" id="D"/><path fill="#333" d="M220-157c-53 9-28 100-34 157h-49v-107c1-27-5-49-29-50C55-147 81-57 75 0H25l-1-190h47c2 12-1 28 3 38 10-53 101-56 108 0 13-22 24-43 59-42 82 1 51 116 57 194h-49v-107c-1-25-5-48-29-50" id="aH"/><g id="E"><use transform="matrix(0.05,0,0,0.05,0,0)" xlink:href="#aA"/><use transform="matrix(0.05,0,0,0.05,10.950000000000001,0)" xlink:href="#X"/><use transform="matrix(0.05,0,0,0.05,20.950000000000003,0)" xlink:href="#W"/><use transform="matrix(0.05,0,0,0.05,26.900000000000002,0)" xlink:href="#ac"/><use transform="matrix(0.05,0,0,0.05,31.900000000000002,0)" xlink:href="#aH"/><use transform="matrix(0.05,0,0,0.05,47.900000000000006,0)" xlink:href="#U"/><use transform="matrix(0.05,0,0,0.05,57.900000000000006,0)" xlink:href="#ak"/><use transform="matrix(0.05,0,0,0.05,68.85000000000001,0)" xlink:href="#aB"/><use transform="matrix(0.05,0,0,0.05,79.80000000000001,0)" xlink:href="#W"/></g><g id="F"><use transform="matrix(0.05,0,0,0.05,0,0)" xlink:href="#T"/><use transform="matrix(0.05,0,0,0.05,7,0)" xlink:href="#V"/><use transform="matrix(0.05,0,0,0.05,17,0)" xlink:href="#ay"/><use transform="matrix(0.05,0,0,0.05,27.950000000000003,0)" xlink:href="#X"/><use transform="matrix(0.05,0,0,0.05,37.95,0)" xlink:href="#ac"/><use transform="matrix(0.05,0,0,0.05,42.95,0)" xlink:href="#Z"/><use transform="matrix(0.05,0,0,0.05,53.45,0)" xlink:href="#ad"/></g><g id="G"><use transform="matrix(0.05,0,0,0.05,0,0)" xlink:href="#T"/><use transform="matrix(0.05,0,0,0.05,7,0)" xlink:href="#U"/><use transform="matrix(0.05,0,0,0.05,17,0)" xlink:href="#W"/><use transform="matrix(0.05,0,0,0.05,22.95,0)" xlink:href="#T"/><use transform="matrix(0.05,0,0,0.05,29.950000000000003,0)" xlink:href="#ac"/><use transform="matrix(0.05,0,0,0.05,34.95,0)" xlink:href="#U"/><use transform="matrix(0.05,0,0,0.05,44.95,0)" xlink:href="#V"/></g><g id="H"><use transform="matrix(0.05,0,0,0.05,0,0)" xlink:href="#Z"/><use transform="matrix(0.05,0,0,0.05,10.5,0)" xlink:href="#Z"/></g><use transform="matrix(0.05,0,0,0.05,0,0)" xlink:href="#aa" id="I"/><g id="J"><use transform="matrix(0.05,0,0,0.05,0,0)" xlink:href="#aA"/><use transform="matrix(0.05,0,0,0.05,10.950000000000001,0)" xlink:href="#X"/><use transform="matrix(0.05,0,0,0.05,20.950000000000003,0)" xlink:href="#T"/><use transform="matrix(0.05,0,0,0.05,27.950000000000003,0)" xlink:href="#U"/><use transform="matrix(0.05,0,0,0.05,37.95,0)" xlink:href="#W"/><use transform="matrix(0.05,0,0,0.05,43.900000000000006,0)" xlink:href="#T"/><use transform="matrix(0.05,0,0,0.05,50.900000000000006,0)" xlink:href="#ac"/><use transform="matrix(0.05,0,0,0.05,55.900000000000006,0)" xlink:href="#U"/><use transform="matrix(0.05,0,0,0.05,65.9,0)" xlink:href="#V"/></g><g id="K"><use transform="matrix(0.05,0,0,0.05,0,0)" xlink:href="#aA"/><use transform="matrix(0.05,0,0,0.05,10.950000000000001,0)" xlink:href="#X"/><use transform="matrix(0.05,0,0,0.05,20.950000000000003,0)" xlink:href="#T"/><use transform="matrix(0.05,0,0,0.05,27.950000000000003,0)" xlink:href="#U"/><use transform="matrix(0.05,0,0,0.05,37.95,0)" xlink:href="#W"/><use transform="matrix(0.05,0,0,0.05,43.900000000000006,0)" xlink:href="#ac"/><use transform="matrix(0.05,0,0,0.05,48.900000000000006,0)" xlink:href="#T"/><use transform="matrix(0.05,0,0,0.05,55.900000000000006,0)" xlink:href="#U"/><use transform="matrix(0.05,0,0,0.05,65.9,0)" xlink:href="#V"/></g></defs></g></svg>